<svg width="32" height="32" viewBox="0 0 32 32" fill="none" xmlns="http://www.w3.org/2000/svg">
<path d="M26.7 25.0281C26.7063 25.0188 26.7156 25.0094 26.7219 25C28.7687 22.5656 30 19.4281 30 16C30 12.5719 28.7688 9.43437 26.725 7C26.7188 6.99062 26.7094 6.98438 26.7031 6.975C26.6688 6.93437 26.6375 6.89687 26.6031 6.85938C26.5906 6.84375 26.5781 6.83125 26.5656 6.81563L26.4375 6.66875L26.4344 6.66563C26.3875 6.6125 26.3375 6.55937 26.2906 6.50625L26.2875 6.50313C26.1875 6.39688 26.0875 6.29063 25.9844 6.1875L25.9813 6.18437L25.8312 6.03438L25.8219 6.025C25.775 5.97813 25.7281 5.93438 25.6812 5.89062C25.6656 5.875 25.65 5.85938 25.6313 5.84375C25.6 5.8125 25.5688 5.78437 25.5375 5.75625C25.5281 5.74687 25.5156 5.7375 25.5063 5.725C23.0125 3.4125 19.6719 2 16 2C12.3281 2 8.9875 3.4125 6.49062 5.725C6.48125 5.73438 6.46875 5.74375 6.45937 5.75625C6.42812 5.78437 6.39687 5.81563 6.36562 5.84688C6.35 5.8625 6.33438 5.87813 6.31563 5.89375C6.26875 5.9375 6.22188 5.98437 6.175 6.02812L6.16563 6.0375L6.01562 6.1875L6.0125 6.19063C5.90937 6.29375 5.80937 6.4 5.70937 6.50625L5.70625 6.50938C5.65625 6.5625 5.60938 6.61562 5.5625 6.66875L5.55937 6.67188C5.51562 6.71875 5.47188 6.76875 5.43125 6.81875C5.41875 6.83437 5.40625 6.84688 5.39375 6.8625C5.35938 6.9 5.32812 6.94063 5.29375 6.97813C5.2875 6.9875 5.27812 6.99375 5.27187 7.00313C3.23125 9.43438 2 12.5719 2 16C2 19.4281 3.23125 22.5656 5.275 25C5.28125 25.0094 5.29063 25.0188 5.29688 25.0281L5.39375 25.1437C5.40625 25.1594 5.41875 25.1719 5.43125 25.1875L5.55937 25.3344C5.55937 25.3375 5.5625 25.3375 5.5625 25.3406C5.60938 25.3938 5.65625 25.4469 5.70625 25.4969L5.70937 25.5C5.80937 25.6063 5.90938 25.7125 6.00938 25.8156L6.0125 25.8188C6.0625 25.8687 6.10938 25.9188 6.15938 25.9656L6.16875 25.975C6.27187 26.0781 6.37813 26.1781 6.48438 26.275C8.9875 28.5875 12.3281 30 16 30C19.6719 30 23.0125 28.5875 25.5094 26.275C25.6158 26.1774 25.72 26.0774 25.8219 25.975L25.8312 25.9656C25.8812 25.9156 25.9312 25.8687 25.9781 25.8188L25.9813 25.8156C26.0844 25.7125 26.1844 25.6063 26.2812 25.5L26.2844 25.4969C26.3312 25.4438 26.3813 25.3938 26.4281 25.3406C26.4281 25.3375 26.4312 25.3375 26.4312 25.3344C26.475 25.2875 26.5188 25.2375 26.5594 25.1875C26.5719 25.1719 26.5844 25.1594 26.5969 25.1437C26.6322 25.1061 26.6666 25.0675 26.7 25.0281ZM26.8281 20.5719C26.3969 21.5906 25.8281 22.5344 25.1344 23.3906C24.3531 22.7154 23.4988 22.1295 22.5875 21.6437C22.95 20.1781 23.175 18.5688 23.2344 16.875H27.7188C27.625 18.1531 27.325 19.3937 26.8281 20.5719ZM27.7188 15.125H23.2344C23.175 13.4312 22.95 11.8219 22.5875 10.3562C23.5031 9.86875 24.3562 9.28125 25.1344 8.60938C26.6424 10.4655 27.5445 12.7398 27.7188 15.125ZM20.5719 5.17188C21.8125 5.69688 22.9406 6.42188 23.9344 7.33437C23.3571 7.82592 22.7357 8.26318 22.0781 8.64062C21.5875 7.23438 20.9594 6.0125 20.2281 5.03438C20.3438 5.07813 20.4594 5.125 20.5719 5.17188ZM17.7406 27.0656C17.4531 27.2906 17.1656 27.4625 16.875 27.5781V21.7812C18.115 21.8678 19.3343 22.1439 20.4906 22.6C20.2313 23.3687 19.9312 24.0781 19.5844 24.7188C19.0406 25.7313 18.4031 26.5406 17.7406 27.0656ZM19.5844 7.28125C19.9281 7.925 20.2313 8.63437 20.4906 9.4C19.3343 9.85611 18.115 10.1322 16.875 10.2188V4.425C17.1625 4.54063 17.4531 4.70937 17.7406 4.9375C18.4031 5.45937 19.0406 6.26875 19.5844 7.28125ZM16.875 20.0281V16.875H21.4844C21.4344 18.2563 21.2625 19.5969 20.975 20.8687L20.9656 20.9062C19.6542 20.4089 18.275 20.1129 16.875 20.0281ZM16.875 15.125V11.9719C18.3062 11.8844 19.6813 11.5813 20.9656 11.0938L20.975 11.1313C21.2625 12.4031 21.4344 13.7406 21.4844 15.125H16.875ZM15.125 16.875V20.0281C13.6938 20.1156 12.3188 20.4188 11.0344 20.9062L11.025 20.8687C10.7375 19.5969 10.5656 18.2594 10.5156 16.875H15.125ZM10.5156 15.125C10.5656 13.7437 10.7375 12.4031 11.025 11.1313L11.0344 11.0938C12.3188 11.5813 13.6906 11.8844 15.125 11.9719V15.125H10.5156ZM15.125 21.7812V27.575C14.8375 27.4594 14.5469 27.2906 14.2594 27.0625C13.5969 26.5406 12.9563 25.7281 12.4125 24.7156C12.0688 24.0719 11.7656 23.3625 11.5063 22.5969C12.6688 22.1406 13.8781 21.8687 15.125 21.7812ZM15.125 10.2188C13.885 10.1322 12.6657 9.85611 11.5094 9.4C11.7687 8.63125 12.0687 7.92188 12.4156 7.28125C12.9594 6.26875 13.5969 5.45625 14.2625 4.93437C14.55 4.70937 14.8375 4.5375 15.1281 4.42188V10.2188H15.125ZM11.4281 5.17188C11.5438 5.125 11.6562 5.07813 11.7719 5.03438C11.0406 6.0125 10.4125 7.23438 9.92188 8.64062C9.26562 8.26562 8.64375 7.82812 8.06563 7.33437C9.05938 6.42188 10.1875 5.69688 11.4281 5.17188ZM5.17188 11.4281C5.60313 10.4094 6.17188 9.46562 6.86562 8.60938C7.64375 9.28125 8.49688 9.86875 9.4125 10.3562C9.05 11.8219 8.825 13.4312 8.76562 15.125H4.28125C4.375 13.8469 4.675 12.6063 5.17188 11.4281ZM4.28125 16.875H8.76562C8.825 18.5688 9.05 20.1781 9.4125 21.6437C8.50119 22.1295 7.64694 22.7154 6.86562 23.3906C5.35759 21.5345 4.45552 19.2602 4.28125 16.875ZM11.4281 26.8281C10.1875 26.3031 9.05938 25.5781 8.06563 24.6656C8.64375 24.1719 9.26562 23.7375 9.92188 23.3594C10.4125 24.7656 11.0406 25.9875 11.7719 26.9656C11.6562 26.9219 11.5406 26.875 11.4281 26.8281ZM20.5719 26.8281C20.4562 26.875 20.3438 26.9219 20.2281 26.9656C20.9594 25.9875 21.5875 24.7656 22.0781 23.3594C22.7344 23.7344 23.3563 24.1719 23.9344 24.6656C22.9461 25.5743 21.8086 26.3059 20.5719 26.8281Z" fill="#121212"/>
</svg>
